<svg id="Layer_1" data-name="Layer 1" xmlns="http://www.w3.org/2000/svg" viewBox="0 0 524.28 81.36"><defs><style>.cls-1,.cls-2{font-size:80.04px;font-family:VCROSDMono, VCR OSD Mono;}.cls-1{fill:#9fc9eb;}.cls-2{fill:#f6989a;}.cls-3{fill:#ef3d39;}</style></defs><text class="cls-1" transform="translate(8.42 73.54)">SOUR SCREEN</text><text class="cls-2" transform="translate(0 69.33)">SOUR SCREEN</text><polygon class="cls-3" points="43.29 16.72 39.38 16.72 39.38 12.81 15.94 12.81 15.94 16.72 12.03 16.72 12.03 20.63 8.12 20.63 8.12 36.26 12.03 36.26 12.03 40.17 15.94 40.17 15.94 44.08 35.48 44.08 35.48 47.99 39.38 47.99 39.38 55.8 35.48 55.8 35.48 59.71 19.84 59.71 19.84 55.8 15.94 55.8 15.94 51.9 8.12 51.9 8.12 59.71 12.03 59.71 12.03 63.62 15.94 63.62 15.94 67.53 39.38 67.53 39.38 63.62 43.29 63.62 43.29 59.71 47.2 59.71 47.2 44.08 43.29 44.08 43.29 40.17 39.38 40.17 39.38 36.26 19.84 36.26 19.84 32.35 15.94 32.35 15.94 24.54 19.84 24.54 19.84 20.63 35.48 20.63 35.48 24.54 39.38 24.54 39.38 28.45 47.2 28.45 47.2 20.63 43.29 20.63 43.29 16.72"/><path class="cls-3" d="M91.28,26.53H87.37V22.62H63.93v3.91H60v3.91H56.11V69.52H60v3.91h3.91v3.91H87.37V73.43h3.91V69.52h3.91V30.44H91.28ZM87.37,65.61h-3.9v3.91H67.83V65.61h-3.9V34.35h3.9V30.44H83.47v3.91h3.9Z" transform="translate(-1.09 -9.81)"/><polygon class="cls-3" points="133.18 55.8 129.27 55.8 129.27 59.71 113.64 59.71 113.64 55.8 109.73 55.8 109.73 12.81 101.91 12.81 101.91 59.71 105.82 59.71 105.82 63.62 109.73 63.62 109.73 67.53 133.18 67.53 133.18 63.62 137.08 63.62 137.08 59.71 140.99 59.71 140.99 12.81 133.18 12.81 133.18 55.8"/><path class="cls-3" d="M185.07,26.53h-3.9V22.62H149.9V77.34h7.82V53.89h3.91V57.8h3.9v3.9h3.91v3.91h3.91v3.91h3.91v3.91h3.91v3.91H189V69.52h-3.91V65.61h-3.9V61.7h-3.91V57.8h-3.91V53.89h7.82V50h3.9V46.07H189V30.44h-3.91Zm-3.9,15.63h-3.91v3.91H157.72V30.44h19.54v3.91h3.91Z" transform="translate(-1.09 -9.81)"/><polygon class="cls-3" points="277.77 16.72 273.86 16.72 273.86 12.81 250.41 12.81 250.41 16.72 246.51 16.72 246.51 20.63 242.6 20.63 242.6 36.26 246.51 36.26 246.51 40.17 250.41 40.17 250.41 44.08 269.95 44.08 269.95 47.99 273.86 47.99 273.86 55.8 269.95 55.8 269.95 59.71 254.32 59.71 254.32 55.8 250.41 55.8 250.41 51.9 242.6 51.9 242.6 59.71 246.51 59.71 246.51 63.62 250.41 63.62 250.41 67.53 273.86 67.53 273.86 63.62 277.77 63.62 277.77 59.71 281.68 59.71 281.68 44.08 277.77 44.08 277.77 40.17 273.86 40.17 273.86 36.26 254.32 36.26 254.32 32.35 250.41 32.35 250.41 24.54 254.32 24.54 254.32 20.63 269.95 20.63 269.95 24.54 273.86 24.54 273.86 28.45 281.68 28.45 281.68 20.63 277.77 20.63 277.77 16.72"/><polygon class="cls-3" points="324.67 16.72 320.76 16.72 320.76 12.81 297.31 12.81 297.31 16.72 293.4 16.72 293.4 20.63 289.49 20.63 289.49 59.71 293.4 59.71 293.4 63.62 297.31 63.62 297.31 67.53 320.76 67.53 320.76 63.62 324.67 63.62 324.67 59.71 328.57 59.71 328.57 51.9 320.76 51.9 320.76 55.8 316.85 55.8 316.85 59.71 301.22 59.71 301.22 55.8 297.31 55.8 297.31 24.54 301.22 24.54 301.22 20.63 316.85 20.63 316.85 24.54 320.76 24.54 320.76 28.45 328.57 28.45 328.57 20.63 324.67 20.63 324.67 16.72"/><path class="cls-3" d="M372.66,26.53h-3.91V22.62H337.48V77.34h7.82V53.89h3.91V57.8h3.91v3.9H357v3.91h3.91v3.91h3.91v3.91h3.91v3.91h7.81V69.52h-3.9V65.61h-3.91V61.7h-3.91V57.8h-3.91V53.89h7.82V50h3.91V46.07h3.9V30.44h-3.9Zm-3.91,15.63h-3.91v3.91H345.3V30.44h19.54v3.91h3.91Z" transform="translate(-1.09 -9.81)"/><polygon class="cls-3" points="383.29 67.53 422.37 67.53 422.37 59.71 391.1 59.71 391.1 44.08 414.55 44.08 414.55 36.26 391.1 36.26 391.1 20.63 422.37 20.63 422.37 12.81 383.29 12.81 383.29 67.53"/><polygon class="cls-3" points="430.18 67.53 469.26 67.53 469.26 59.71 438 59.71 438 44.08 461.44 44.08 461.44 36.26 438 36.26 438 20.63 469.26 20.63 469.26 12.81 430.18 12.81 430.18 67.53"/><polygon class="cls-3" points="508.34 12.81 508.34 44.08 504.43 44.08 504.43 40.17 500.52 40.17 500.52 36.26 496.62 36.26 496.62 32.35 492.71 32.35 492.71 28.45 488.8 28.45 488.8 24.54 484.89 24.54 484.89 12.81 477.08 12.81 477.08 67.53 484.89 67.53 484.89 36.26 488.8 36.26 488.8 40.17 492.71 40.17 492.71 44.08 496.62 44.08 496.62 47.99 500.52 47.99 500.52 51.9 504.43 51.9 504.43 55.8 508.34 55.8 508.34 67.53 516.16 67.53 516.16 12.81 508.34 12.81"/></svg>