<svg height="100px" width="300px" xmlns="http://www.w3.org/2000/svg" viewBox="0 0 516.79 70.19"><defs><style>.tracking-line-top {
        animation: animate-tracking-line;
        animation-timing-function: ease-in-out;
        animation-iteration-count: infinite;
        animation-fill-mode: forwards;
        animation-duration: 5s;
      }

      .tracking-line-bottom {
        background-color: white;
        animation: animate-tracking-line;
        animation-timing-function: ease-in-out;
        animation-iteration-count: infinite;
        animation-fill-mode: backwards;
        animation-duration: 5s;
        animation-delay: 3s;
      }

      @keyframes animate-tracking-line {
        0% {
          transform: translate(0px, 100px);
        }
        50% {
          transform: translate(0px, -20px);
        }
        100% {
          transform: translate(0px, 100px);
        }
      }
.cls-1{fill:#9fc9eb;}.cls-2{fill:#f6989a;}.cls-3{fill:#ef3d39;}
.cls-4{fill:white;
  width:100%;}
.cls-4:first-of-type{
  height:5px;
  opacity:0.7;
}
.cls-4:last-of-type{
  height:10px;
  opacity:0.5;
}</style></defs><g id="logo"><path class="cls-1" d="M48.6,32.55h3.91v7.81H44.69V36.45H40.78v-3.9H25.15v3.9H21.24v7.82h3.91v3.91H44.69v3.91H48.6V56h3.91V71.63H48.6v3.9H44.69v3.91H21.24V75.53h-3.9v-3.9H13.43V63.81h7.81v3.91h3.91v3.91H40.78V67.72h3.91V59.9H40.78V56H21.24v-3.9h-3.9V48.18H13.43V32.55h3.91V28.64h3.9V24.73H44.69v3.91H48.6Z" transform="translate(-5 -20.52)"/><path class="cls-1" d="M68.14,28.64V24.73H91.59v3.91h3.9v3.91H99.4V71.63H95.49v3.9h-3.9v3.91H68.14V75.53H64.23v-3.9H60.32V32.55h3.91V28.64Zm19.54,3.91H72.05v3.9H68.14V67.72h3.91v3.91H87.68V67.72h3.91V36.45H87.68Z" transform="translate(-5 -20.52)"/><path class="cls-1" d="M111.13,71.63h-3.91V24.73H115v43h3.91v3.91h15.63V67.72h3.91v-43h7.82v46.9h-3.91v3.9h-3.91v3.91H115V75.53h-3.9Z" transform="translate(-5 -20.52)"/><path class="cls-1" d="M165.84,56h-3.91V79.44h-7.82V24.73h31.27v3.91h3.91v3.91h3.9V48.18h-3.9v3.91h-3.91V56h-7.82V59.9h3.91v3.91h3.91v3.91h3.91v3.91h3.9v7.81h-7.81V75.53h-3.91v-3.9h-3.91V67.72h-3.91V63.81h-3.9V59.9h-3.91Zm-3.91-23.44V48.18h19.54V44.27h3.91V36.45h-3.91v-3.9Z" transform="translate(-5 -20.52)"/><path class="cls-1" d="M283.08,32.55H287v7.81h-7.81V36.45h-3.91v-3.9H259.63v3.9h-3.91v7.82h3.91v3.91h19.54v3.91h3.91V56H287V71.63h-3.9v3.9h-3.91v3.91H255.72V75.53h-3.91v-3.9H247.9V63.81h7.82v3.91h3.91v3.91h15.63V67.72h3.91V59.9h-3.91V56H255.72v-3.9h-3.91V48.18H247.9V32.55h3.91V28.64h3.91V24.73h23.45v3.91h3.91Z" transform="translate(-5 -20.52)"/><path class="cls-1" d="M306.52,71.63h15.63V67.72h3.91V63.81h7.82v7.82H330v3.9h-3.91v3.91H302.61V75.53h-3.9v-3.9H294.8V32.55h3.91V28.64h3.9V24.73h23.45v3.91H330v3.91h3.91v7.81h-7.82V36.45h-3.91v-3.9H306.52v3.9h-3.91V67.72h3.91Z" transform="translate(-5 -20.52)"/><path class="cls-1" d="M353.42,56h-3.91V79.44h-7.82V24.73H373v3.91h3.91v3.91h3.9V48.18h-3.9v3.91H373V56h-7.82V59.9h3.91v3.91H373v3.91h3.91v3.91h3.9v7.81H373V75.53h-3.91v-3.9h-3.91V67.72h-3.9V63.81h-3.91V59.9h-3.91Zm-3.91-23.44V48.18h19.54V44.27H373V36.45h-3.91v-3.9Z" transform="translate(-5 -20.52)"/><path class="cls-1" d="M427.67,24.73v7.82H396.41V48.18h23.44V56H396.41V71.63h31.26v7.81H388.59V24.73Z" transform="translate(-5 -20.52)"/><path class="cls-1" d="M474.57,24.73v7.82H443.3V48.18h23.45V56H443.3V71.63h31.27v7.81H435.49V24.73Z" transform="translate(-5 -20.52)"/><path class="cls-1" d="M490.2,48.18V79.44h-7.82V24.73h7.82V36.45h3.91v3.91H498v3.91h3.91v3.91h3.91v3.91h3.91V56h3.91V24.73h7.81V79.44h-7.81V67.72h-3.91V63.81h-3.91V59.9h-3.91V56H498v-3.9h-3.9V48.18Z" transform="translate(-5 -20.52)"/><path class="cls-2" d="M40.17,28.33h3.91v7.82H36.27V32.24H32.36V28.33H16.73v3.91H12.82v7.82h3.91V44H36.27v3.91h3.9v3.91h3.91V67.41H40.17v3.91h-3.9v3.91H12.82V71.32H8.91V67.41H5V59.6h7.82v3.9h3.91v3.91H32.36V63.5h3.91V55.69H32.36V51.78H12.82V47.87H8.91V44H5V28.33H8.91V24.42h3.91v-3.9H36.27v3.9h3.9Z" transform="translate(-5 -20.52)"/><path class="cls-2" d="M59.71,24.42v-3.9H83.16v3.9h3.91v3.91H91V67.41H87.07v3.91H83.16v3.91H59.71V71.32h-3.9V67.41H51.9V28.33h3.91V24.42Zm19.54,3.91H63.62v3.91H59.71V63.5h3.91v3.91H79.25V63.5h3.91V32.24H79.25Z" transform="translate(-5 -20.52)"/><path class="cls-2" d="M102.7,67.41H98.79V20.52h7.82v43h3.91v3.91h15.63V63.5h3.91v-43h7.81V67.41H134v3.91h-3.91v3.91H106.61V71.32H102.7Z" transform="translate(-5 -20.52)"/><path class="cls-2" d="M157.41,51.78H153.5V75.23h-7.81V20.52H177v3.9h3.91v3.91h3.91V44h-3.91v3.91H177v3.91h-7.81v3.91H173V59.6H177v3.9h3.91v3.91h3.91v7.82H177V71.32H173V67.41h-3.9V63.5h-3.91V59.6h-3.91V55.69h-3.91ZM153.5,28.33V44H173v-3.9H177V32.24H173V28.33Z" transform="translate(-5 -20.52)"/><path class="cls-2" d="M274.65,28.33h3.91v7.82h-7.82V32.24h-3.91V28.33H251.2v3.91h-3.9v7.82h3.9V44h19.54v3.91h3.91v3.91h3.91V67.41h-3.91v3.91h-3.91v3.91H247.3V71.32h-3.91V67.41h-3.91V59.6h7.82v3.9h3.9v3.91h15.63V63.5h3.91V55.69h-3.91V51.78H247.3V47.87h-3.91V44h-3.91V28.33h3.91V24.42h3.91v-3.9h23.44v3.9h3.91Z" transform="translate(-5 -20.52)"/><path class="cls-2" d="M298.1,67.41h15.63V63.5h3.91V59.6h7.81v7.81h-3.9v3.91h-3.91v3.91H294.19V71.32h-3.91V67.41h-3.91V28.33h3.91V24.42h3.91v-3.9h23.45v3.9h3.91v3.91h3.9v7.82h-7.81V32.24h-3.91V28.33H298.1v3.91h-3.91V63.5h3.91Z" transform="translate(-5 -20.52)"/><path class="cls-2" d="M345,51.78h-3.9V75.23h-7.82V20.52h31.26v3.9h3.91v3.91h3.91V44h-3.91v3.91h-3.91v3.91h-7.81v3.91h3.91V59.6h3.9v3.9h3.91v3.91h3.91v7.82h-7.82V71.32h-3.9V67.41h-3.91V63.5h-3.91V59.6H348.9V55.69H345Zm-3.9-23.45V44h19.54v-3.9h3.9V32.24h-3.9V28.33Z" transform="translate(-5 -20.52)"/><path class="cls-2" d="M419.24,20.52v7.81H388V44h23.45v7.82H388V67.41h31.26v7.82H380.17V20.52Z" transform="translate(-5 -20.52)"/><path class="cls-2" d="M466.14,20.52v7.81H434.88V44h23.44v7.82H434.88V67.41h31.26v7.82H427.06V20.52Z" transform="translate(-5 -20.52)"/><path class="cls-2" d="M481.77,44V75.23H474V20.52h7.81V32.24h3.91v3.91h3.91v3.91h3.91V44h3.9v3.91h3.91v3.91h3.91V20.52H513V75.23h-7.82V63.5h-3.91V59.6H497.4V55.69h-3.9V51.78h-3.91V47.87h-3.91V44Z" transform="translate(-5 -20.52)"/><polygon class="cls-3" points="39.38 6.01 35.48 6.01 35.48 2.11 12.03 2.11 12.03 6.01 8.12 6.01 8.12 9.92 4.21 9.92 4.21 25.55 8.12 25.55 8.12 29.46 12.03 29.46 12.03 33.37 31.57 33.37 31.57 37.28 35.48 37.28 35.48 45.09 31.57 45.09 31.57 49 15.94 49 15.94 45.09 12.03 45.09 12.03 41.19 4.21 41.19 4.21 49 8.12 49 8.12 52.91 12.03 52.91 12.03 56.82 35.48 56.82 35.48 52.91 39.38 52.91 39.38 49 43.29 49 43.29 33.37 39.38 33.37 39.38 29.46 35.48 29.46 35.48 25.55 15.94 25.55 15.94 21.65 12.03 21.65 12.03 13.83 15.94 13.83 15.94 9.92 31.57 9.92 31.57 13.83 35.48 13.83 35.48 17.74 43.29 17.74 43.29 9.92 39.38 9.92 39.38 6.01"/><path class="cls-3" d="M91.28,26.53H87.37V22.62H63.93v3.91H60v3.91H56.11V69.52H60v3.91h3.91v3.91H87.37V73.43h3.91V69.52h3.91V30.44H91.28ZM87.37,65.61h-3.9v3.91H67.83V65.61h-3.9V34.35h3.9V30.44H83.47v3.91h3.9Z" transform="translate(-5 -20.52)"/><polygon class="cls-3" points="129.27 45.09 125.36 45.09 125.36 49 109.73 49 109.73 45.09 105.82 45.09 105.82 2.11 98 2.11 98 49 101.91 49 101.91 52.91 105.82 52.91 105.82 56.82 129.27 56.82 129.27 52.91 133.18 52.91 133.18 49 137.08 49 137.08 2.11 129.27 2.11 129.27 45.09"/><path class="cls-3" d="M185.07,26.53h-3.9V22.62H149.9V77.34h7.82V53.89h3.91V57.8h3.9v3.9h3.91v3.91h3.91v3.91h3.91v3.91h3.91v3.91H189V69.52h-3.91V65.61h-3.9V61.7h-3.91V57.8h-3.91V53.89h7.82V50h3.9V46.07H189V30.44h-3.91Zm-3.9,15.63h-3.91v3.91H157.72V30.44h19.54v3.91h3.91Z" transform="translate(-5 -20.52)"/><polygon class="cls-3" points="273.86 6.01 269.95 6.01 269.95 2.11 246.51 2.11 246.51 6.01 242.6 6.01 242.6 9.92 238.69 9.92 238.69 25.55 242.6 25.55 242.6 29.46 246.51 29.46 246.51 33.37 266.05 33.37 266.05 37.28 269.95 37.28 269.95 45.09 266.05 45.09 266.05 49 250.41 49 250.41 45.09 246.51 45.09 246.51 41.19 238.69 41.19 238.69 49 242.6 49 242.6 52.91 246.51 52.91 246.51 56.82 269.95 56.82 269.95 52.91 273.86 52.91 273.86 49 277.77 49 277.77 33.37 273.86 33.37 273.86 29.46 269.95 29.46 269.95 25.55 250.41 25.55 250.41 21.65 246.51 21.65 246.51 13.83 250.41 13.83 250.41 9.92 266.05 9.92 266.05 13.83 269.95 13.83 269.95 17.74 277.77 17.74 277.77 9.92 273.86 9.92 273.86 6.01"/><polygon class="cls-3" points="320.76 6.01 316.85 6.01 316.85 2.11 293.4 2.11 293.4 6.01 289.49 6.01 289.49 9.92 285.59 9.92 285.59 49 289.49 49 289.49 52.91 293.4 52.91 293.4 56.82 316.85 56.82 316.85 52.91 320.76 52.91 320.76 49 324.67 49 324.67 41.19 316.85 41.19 316.85 45.09 312.94 45.09 312.94 49 297.31 49 297.31 45.09 293.4 45.09 293.4 13.83 297.31 13.83 297.31 9.92 312.94 9.92 312.94 13.83 316.85 13.83 316.85 17.74 324.67 17.74 324.67 9.92 320.76 9.92 320.76 6.01"/><path class="cls-3" d="M372.66,26.53h-3.91V22.62H337.48V77.34h7.82V53.89h3.91V57.8h3.91v3.9H357v3.91h3.91v3.91h3.91v3.91h3.91v3.91h7.81V69.52h-3.9V65.61h-3.91V61.7h-3.91V57.8h-3.91V53.89h7.82V50h3.91V46.07h3.9V30.44h-3.9Zm-3.91,15.63h-3.91v3.91H345.3V30.44h19.54v3.91h3.91Z" transform="translate(-5 -20.52)"/><polygon class="cls-3" points="379.38 56.82 418.46 56.82 418.46 49 387.19 49 387.19 33.37 410.64 33.37 410.64 25.55 387.19 25.55 387.19 9.92 418.46 9.92 418.46 2.11 379.38 2.11 379.38 56.82"/><polygon class="cls-3" points="426.27 56.82 465.35 56.82 465.35 49 434.09 49 434.09 33.37 457.54 33.37 457.54 25.55 434.09 25.55 434.09 9.92 465.35 9.92 465.35 2.11 426.27 2.11 426.27 56.82"/><polygon class="cls-3" points="504.43 2.11 504.43 33.37 500.52 33.37 500.52 29.46 496.62 29.46 496.62 25.55 492.71 25.55 492.71 21.65 488.8 21.65 488.8 17.74 484.89 17.74 484.89 13.83 480.99 13.83 480.99 2.11 473.17 2.11 473.17 56.82 480.99 56.82 480.99 25.55 484.89 25.55 484.89 29.46 488.8 29.46 488.8 33.37 492.71 33.37 492.71 37.28 496.62 37.28 496.62 41.19 500.52 41.19 500.52 45.09 504.43 45.09 504.43 56.82 512.25 56.82 512.25 2.11 504.43 2.11"/></g>
<g id="rects"><rect class="cls-4 tracking-line-top"/><rect class="cls-4 tracking-line-bottom"/></g>
</svg>